<svg xmlns="http://www.w3.org/2000/svg" version="1.1" xmlns:xlink="http://www.w3.org/1999/xlink" xmlns:svgjs="http://svgjs.dev/svgjs" width="100%" height="100%" viewBox="0 0 1000 600"><rect width="1000" height="600" x="0" y="0" fill="#00000"/><g><rect width="333.3333333333333" height="333.3333333333333" rx="13.333333333333334" ry="13.333333333333334" y="77.77780045403293" fill="#" transform="matrix(2.25000013732911,0,0,2.25000013732911,0,-250.00003738403575)" x="55.555564880371094"/><path d="M106.01889252335309 319.44445419311467L87.47384965617896 319.44445419311467L87.47384965617896 169.44445807539222L166.65779031312218 169.44445807539222L187.83193224530723 190.81648918451359L187.83193224530723 242.2959450703735L166.65779031312218 263.6679761794949L106.01889252335309 263.6679761794949L106.01889252335309 319.44445419311467ZM106.01889252335309 185.92579952594483L106.01889252335309 247.18663472894227L158.31817499937767 247.18663472894227L169.3151592605526 235.99176129083108L169.3151592605526 197.120672964056L158.31817499937767 185.7279103490085L106.01889252335309 185.92579952594483ZM230.18021610967745 319.44445419311467L211.6351732425033 319.44445419311467L211.6351732425033 169.44445807539222L236.88017824309247 169.44445807539222L284.11915176603145 289.30875953395673L331.5277445834872 169.44445807539222L356.97063876101265 169.44445807539222L356.97063876101265 319.44445419311467L338.2559765993217 319.44445419311467L338.2559765993217 197.71434049486496L289.40561977847284 319.44445419311467L279.0305729305263 319.44445419311467L230.18021610967745 197.94049955422074L230.18021610967745 319.44445419311467Z " fill="#ffff" transform="matrix(2.25000013732911,0,0,2.25000013732911,0,-250.00003738403575)"/><path d="MNaN 244.4444580078119 " fill="#243665" transform="matrix(2.25000013732911,0,0,2.25000013732911,0,-250.00003738403575)"/></g></svg>